/* XPM */
static char *f7d91ea256fd4818bc79196479cca1ddjJL9pzJNVPJNYmgv[] = {
/* columns rows colors chars-per-pixel */
"64 64 60 1 ",
"  c #00963F",
". c #049741",
"X c #069843",
"o c #0A9946",
"O c #0E9B49",
"+ c #149D4D",
"@ c #1A9F50",
"# c #1BA153",
"$ c #22A357",
"% c #25A45A",
"& c #29A65C",
"* c #2CA85F",
"= c #2DA860",
"- c #34AA64",
"; c #3CAD6A",
": c #42AF6D",
"> c #41B06F",
", c #46B272",
"< c #4AB375",
"1 c #4FB679",
"2 c #52B77B",
"3 c #55B87E",
"4 c #5BBA82",
"5 c #61BD87",
"6 c #65BF8A",
"7 c #67C08C",
"8 c #6BC18E",
"9 c #6EC290",
"0 c #74C595",
"q c #78C697",
"w c #7AC799",
"e c #7CC89B",
"r c #80CA9E",
"t c #85CCA2",
"y c #89CDA4",
"u c #8DCFA8",
"i c #95D2AE",
"p c #9BD5B3",
"a c #A1D7B6",
"s c #A5D9B9",
"d c #AADBBE",
"f c #AEDDC1",
"g c #B2DEC4",
"h c #B6E0C7",
"j c #B7E0C8",
"k c #BCE2CB",
"l c #C1E4CF",
"z c #C4E6D1",
"x c #C9E8D6",
"c c #CEEAD9",
"v c #D5EDDE",
"b c #DCF0E4",
"n c #E0F2E7",
"m c #E4F3EA",
"M c #EAF6EE",
"N c #EDF7F1",
"B c #EFF8F2",
"V c #F3F9F5",
"C c #F7FBF8",
"Z c #FFFFFF",
/* pixels */
"                                                                ",
"           .                       .                            ",
".                                       .       .               ",
"     .                       .                       .          ",
"               . +2o                              .             ",
"  .   . .  .     #vp@          ..     .    .  .       .         ",
"                 @bZl;             .    .                       ",
" .  .        .   @bZZn5              .      .  . .  .           ",
"                 @bZZZVt+        .     .         . ..           ",
"      3ytrtyrytrtiBZZZZZk>  .  .     .    .  .                  ",
"      ajasssssssadVZZZZZZt                       .   .          ",
"      i-         #bZZZZZZr         .   ..         .     .       ",
"      a&         @bZZZZZZt    .      .    .        .    . .  .  ",
"      p-         #bZZZZZZt       .              .             . ",
"      i=         #bZZZZZZr                                . .   ",
"      i&         #bZZZZZZr        .   .  .  .            .     .",
"      p=         @bZZZZZZt                    @6qrrrrr6% .      ",
"o    oi=  oX     @bZZZZZZr      .      .  .   +dCCCCZZZi     .  ",
"     Xi= ,lf-    @nZZZZZZr         ..          :mZZZZZZm;       ",
"      i=@cZZfo   @bZZZZZZr               .      uZZZZZZZdo     .",
"     Xi&2ZZZM-  .@bZZZZZZt   .   .              &bZZZZZZC2      ",
"      i&6ZZZC:   @bZZZZZZt            .    .    o6ZZZZZZZz+ .   ",
"     Xi&4ZZZV;   @bZZZZZZt               .      .@zZZZZZZC6    .",
"      q%%bZZzO   @bZZZZZZr         ..           . 4CZZZZZZv$    ",
"   @%%=&O6nv<    @nZZZZZZt                        OgZZZZZZZt    ",
"  -cmmmml4=@     @nZZZZZZt       .                 :NZZZZZZm-   ",
".OdCZZZZZVf%     @bZZZZZZr        .,3112422213332224cZZZZZZZa.  ",
".6CCCZZZZZZw     @bZZZZZZr        OxZZZZCZZZCCZCZCZCZZZZZZZZV<  ",
"-bZm64aZZZZgo..  @bZZZZZZr        oxZZZZZZZZZZZZZZZZZZZZZZZZZg+ ",
"aCZ6  uZZZZm%    #bZZZZZZt        +xZZZZZZZZZZZZZZZZZZZZZZZZZC5 ",
"sZgO olZZZZC4    #nZZZZZZt        OxZZZZZZZZZZZZZZZZZZZZZZZZZZc$",
":s-. %mZZZZZa@@+ @bZZZZZZt        oxZZZZZZZZZZZZZZZZZZZZZZZZZZZy",
"     <CZZVlZVbnx-#bZZZZZZr        oxZZZZZZZZZZZZZZZZZZZZZZZZZZZf",
"     wZZZv4VZZZZ7+bZZZZZZr    .   oxZZZZZZZZZZZZZZZZZZZZZZZZZZm;",
"     dZZZg@zZZZC1+bZZZZZZr        oxZZZZZZZZZZZZZZZZZZZZZZZZZZt ",
"    @vZZZe >7661o#bZZZZZZt   .    +xZZZZZZZZZZZZZZZZZZZZZZZZZv$ ",
"    -BZZC1       #bZZZZZZt     .  OxZZZZZZZZZZZZZZZZZZZZZZZZC8  ",
"    5ZZZm$       #bZZZZZZt        XqpppppiipppppppppbZZZZZZZz+  ",
"   ogZZZM-       #bZZZZZZr                         &bZZZZZZV2   ",
"   1VZZZZp       #bZZZZZZr                         uZZZZZZZdo   ",
"  ogZBgZZV,      @bZZZZZZt         ..             ;MZZZZZZM:    ",
"yraVZd$lZZho     #bZZZZZZr               .       odZZZZZZZu     ",
"ZZZZm: ,MZZ5     #bZZZZZZr       .               1VZZZZZZb&     ",
"ZZZZuo3OuZZdX    @bZZZZZZr            .    .    +lZZZZZZZq      ",
"zzzg$Xi&@cZko    #bZZZZZZt               .  .   6ZZZZZZZx@      ",
"OOoo  i* rZk.    #bZZZZZZt         .           $vZZZZZZC4     . ",
"     .i* 0Zko    #bZZZZZZt  .   .   .  .       yZZZZZZZgo       ",
"     Xi* qZjo    #bZZZZZZr                .   #dzzzlzzl:    .   ",
"     .i= qZgO    @bZZZZZZt        X            OoooOooo        .",
"     .i= wZko    @bZZZZZZt          X                     .     ",
" .   .i= rZlX  . @bZZZZZZr                 X         .          ",
"     .i* 6Zgo    @bZZZZZZr             X X               .   .  ",
"     .p* 0Zg.    #bZZZZZZr                     X .  .  .      . ",
"   . .i= -c6     #bZZZZZZt      X                       .       ",
".    .i=  +X   . $bZZZZZZt         X       XX     .  .     .    ",
"     .slgdgdggdgdhBZZZZZV0           X                       .  ",
"      1rrqr6rrwwqyMZZZZl1O    X  X            X                 ",
"                 #bCZb9+            X      X      .  .   .   .  ",
"                 #bBi&                X X                      .",
"                 @p<      X       X          X   .  .  .   .    ",
"  .    X         Xo          X     XX                           ",
"                                           XX        .   . ..   ",
"                   X   X                X              ..     . ",
" .                             X       X                   . .  "
};
