/* XPM */
static char *_5dc2d785eba4b1c9a1f1a97baa25e0dHHQEzjgjc7NDsZt6[] = {
/* columns rows colors chars-per-pixel */
"64 64 226 2 ",
"   c None",
".  c #2B150F",
"X  c #392319",
"o  c #761017",
"O  c #452619",
"+  c #52311D",
"@  c #772D1D",
"#  c #711A2C",
"$  c #582B23",
"%  c #59352A",
"&  c #4B2F2E",
"*  c #762D23",
"=  c #643C2D",
"-  c #783A26",
";  c #683939",
":  c #723B35",
">  c #5A0A0D",
",  c #784839",
"<  c #754D3C",
"1  c #162E7F",
"2  c #333173",
"3  c #563256",
"4  c #653541",
"5  c #6C244A",
"6  c #5F2B6C",
"7  c #5C4240",
"8  c #754F41",
"9  c #784C52",
"0  c #56446F",
"q  c #714C6D",
"w  c #5E667C",
"e  c #746B75",
"r  c #860C0E",
"t  c #881415",
"y  c #991716",
"u  c #930F0F",
"i  c #AC1316",
"p  c #A9181A",
"a  c #B31415",
"s  c #BC1B1E",
"d  c #B9181A",
"f  c #803C1E",
"g  c #A02B1F",
"h  c #951B26",
"j  c #831B25",
"k  c #BA1D23",
"l  c #AE1C2A",
"z  c #9A2628",
"x  c #883C28",
"c  c #94312A",
"v  c #A62629",
"b  c #BD2527",
"n  c #B43B3D",
"m  c #A7322E",
"M  c #CC1A1C",
"N  c #C81619",
"B  c #D21B19",
"V  c #D1201E",
"C  c #CA1D24",
"Z  c #D11D22",
"A  c #CC2124",
"S  c #C4272A",
"D  c #D52828",
"F  c #D22A36",
"G  c #D23231",
"H  c #8B4429",
"J  c #974529",
"K  c #854935",
"L  c #9B4937",
"P  c #995436",
"I  c #88533B",
"U  c #A54A29",
"Y  c #AB532E",
"T  c #A54C36",
"R  c #B55837",
"E  c #AB5537",
"W  c #BC643B",
"Q  c #C2683F",
"!  c #8C2961",
"~  c #923267",
"^  c #8D2953",
"/  c #D63B48",
"(  c #8C524A",
")  c #B64748",
"_  c #A75648",
"`  c #BE5B41",
"'  c #996651",
"]  c #A86645",
"[  c #B96646",
"{  c #B76856",
"}  c #BF7E5B",
"|  c #865562",
" . c #93756D",
".. c #B0706E",
"X. c #C45F47",
"o. c #D44E51",
"O. c #CA774A",
"+. c #D37A54",
"@. c #C66F51",
"#. c #CB696A",
"$. c #CA7B62",
"%. c #CC7878",
"&. c #D07167",
"*. c #BD816C",
"=. c #BF8C7A",
"-. c #AC8E72",
";. c #C7865C",
":. c #D3855A",
">. c #E0875C",
",. c #E7B05E",
"<. c #C88467",
"1. c #DA946A",
"2. c #C98776",
"3. c #DA8B72",
"4. c #D99579",
"5. c #D28F73",
"6. c #E5967A",
"7. c #E99568",
"8. c #F7A877",
"9. c #F1D172",
"0. c #122D86",
"q. c #17348B",
"w. c #0E399E",
"e. c #143495",
"r. c #15369A",
"t. c #2A3B8B",
"y. c #133DA5",
"u. c #143FAC",
"i. c #1437A1",
"p. c #113FAC",
"a. c #3A4484",
"s. c #29489B",
"d. c #3F769F",
"f. c #1642AE",
"g. c #1B45AD",
"h. c #1D45A8",
"j. c #1A4DBC",
"k. c #1848B8",
"l. c #1E51BC",
"z. c #284DAC",
"x. c #3753AC",
"c. c #254DB5",
"v. c #2356BA",
"b. c #3B59B3",
"n. c #51538E",
"m. c #68508D",
"M. c #506A90",
"N. c #4767A7",
"B. c #416CBC",
"V. c #6C65A0",
"C. c #77729B",
"Z. c #1B4CC2",
"A. c #1B4AC5",
"S. c #1D54C4",
"D. c #1C55CC",
"F. c #1E59CD",
"G. c #1F5CD3",
"H. c #1D57D1",
"J. c #2154C2",
"K. c #225ACC",
"L. c #265AC5",
"P. c #225DD3",
"I. c #215ED8",
"U. c #335CCF",
"Y. c #1D64D8",
"T. c #2B62CB",
"R. c #2563D5",
"E. c #2364DA",
"W. c #2568DB",
"Q. c #2A69DE",
"!. c #2966D4",
"~. c #3667D4",
"^. c #2B6CE2",
"/. c #276DE0",
"(. c #4362C5",
"). c #CC7F85",
"_. c #7C8894",
"`. c #5E8AC1",
"'. c #92888E",
"]. c #AD8F8E",
"[. c #A19CAB",
"{. c #B7ACB5",
"}. c #B2B2BC",
"|. c #ADA6A9",
" X c #9399AD",
".X c #C38684",
"XX c #D58688",
"oX c #D89D87",
"OX c #CD9997",
"+X c #E29983",
"@X c #D8A794",
"#X c #C7AC8E",
"$X c #E8AB87",
"%X c #F5AA87",
"&X c #F7B287",
"*X c #EBB393",
"=X c #F5B996",
"-X c #E7AE93",
";X c #DE9FA4",
":X c #D6A5A6",
">X c #D9B6B7",
",X c #C8ACAF",
"<X c #E3B8AE",
"1X c #EEC2AA",
"2X c #F7CBB3",
"3X c #B1B5C2",
"4X c #C4BEC2",
"5X c #C4C1C6",
"6X c #D6CACB",
"7X c #D9D3D8",
"8X c #D1CBD3",
"9X c #EDD3CA",
"0X c #E3DCDE",
"qX c #E7D5D5",
"wX c #EECFC6",
"eX c #E8E2DE",
"rX c #E4DDE2",
"tX c #E5E1E4",
"yX c #EDEAED",
"uX c #EBE6E8",
"iX c #F1EAEC",
"pX c #F6F2ED",
"aX c #F6F3F4",
"sX c #FBFAFA",
"dX c #F9F7F7",
"fX c #F5EFF2",
/* pixels */
"                                                                                                                                ",
"                                                                                                                                ",
"                                                                                                                                ",
"                                                                                                                                ",
"                                                                                                                                ",
"                                                                                                                                ",
"                                                                                                                                ",
"                                                                                                                                ",
"                                                                                                                                ",
"                                                                                                                                ",
"                                                                                                                                ",
"                                                                                                                                ",
"                                                          D D G o.o.o.F Z C                                                     ",
"                                                      G D B o.:XXX<X).OX#.s C k                                                 ",
"                                                  / D B B Z ;X#.%.XX.X{ :XS a d k b                                             ",
"                                                / D B B B B #.#.>X>X4X%.#.a a i a b b                                           ",
"                                                F M M N N N b T n n n n s a a i y p l                                           ",
"                                              F S M N a y t t z m U J c r o u u y y l v                                         ",
"                                              S C p g H $ 4 & K ;.O.;.K % 7 & ; m t h v                                         ",
"                                              v y f ;.<.=.OX]. .5.5.=. .'.[.-...*.- j z                                         ",
"                                                W H $X*X9X3Xd.M.#X*XoXe M.[.{.].5.* H {                                         ",
"                                              7.>.- #X1X9X}.M.'.1X1X=X-.e [.:X@XXX* ] ;.}                                       ",
"                                              8.:.' #X .#X<X1X2X2X=X=X=X-X@X=.' 2.P P ;.1.                                      ",
"                                              &X8.$X;.X + < -X=X*X&X%X$X6.8 O . 8 6.;.:.                                        ",
"                                                  &X$X' = X < <.1.1.1.<.K . O 8 <.6.                                            ",
"                                                    %X%XoX' 9 , , < = = < ( *.6.3.                                              ",
"                                                      6.+X%X=X$X5.1.;.<.oXoX2.2.                                                ",
"                                                    F ~ t.q X.3.4.4.<.<.{ 9 2 2 z                                               ",
"                                                G A S m./.x.h h z z j * # 1 r.t.h y v :X                                        ",
"                                              D Z C v V.`.B.m.| ~ ~ ! ! 6 s.N.0 j u y m @XeX                                    ",
"                                            D Z Z N ) *X9.'.!.~.~.~.~.U.F.'.9.,.P t u u p %.qX                                  ",
"                                        G A Z M d ^ C.#X-.M.W.^.^.Q./.Y.Y.N.-.-.m.5 u u i d S                                   ",
"                                      S C C C i # (.Q.~.!.Q.^.^.^.^./.E.E.Y.S.v.S.z.# r a d k l                                 ",
"                                    wXXXo.C i t 6 ~.Q.^.^.^.^.^.^.W.E.R.G.G.F.K.D.S.2 r a k o.).>XqX                            ",
"                                dXsXfXuX7X.Xj > x.T.P.P.I.Q.E.E.E.E.I.G.G.D.S.S.l.c.z.o z ).qXuXiXuXuX                          ",
"                              dXsXsXdXrXqX|.9   v.J.K.K.K.K.H.K.K.F.D.D.S.S.j.j.j.c.c.  OXqXiXfXdXdXyXuX                        ",
"                            dXdXsXsXyXrXtX3X      v.j.k.c.A.A.A.j.k.j.k.k.k.f.f.g.z.    rXrXdXsXsXsXyXtXtX                      ",
"                          pXpXdXsXyX7X}.5X7X      J.l.k.k.u.u.u.f.f.f.f.f.w.f.f.y.h.    iXiX7X7XiXaXyXtX7X7X                    ",
"                            eX0X0XtX4X[.8X7X'.    R.P.F.A.u.i.i.w.w.w.w.w.w.w.f.g.g.    uXrX7XrXiXiX7X4X5X5X                    ",
"                              7X6X6X8X4X{.}.      !.W.R.I.A.A.i.q.e.e.e.f.k.F.F.D.c.z.    4X,X0XrX3X|.|.                        ",
"                                                T.!.Y.W.Y.F.A.i.1   q.h.D.G./.I.G.Z.z.                                          ",
"                                                R.W.W.W.G.D.A.e.      v.I.^.I.G.I.D.j.                                          ",
"                                                R.W.E.Y.G.H.k.e.      v.P.R.^.I.K.K.c.                                          ",
"                                              !.!.E.E.R.G.H.u.e.      v.P.E.I.R.K.K.J.c.                                        ",
"                                              !.E.!.Y.I.H.A.i.0.        L.R.R.R.I.K.J.c.                                        ",
"                                              !.E.E.E.Y.D.A.e.          L.R.R.!.I.K.K.l.                                        ",
"                                            | w n.x.L.G.D.Z.e.          v.T.R.!.U.b.n.0 9                                       ",
"                                        $.$.&.X.) ( 9 0 a.t.t.          L.L.b.n.| _ ] [ [ [ P                                   ",
"                                        @.+.3.+.X.T m x ; 4 3           9 | _ Y W Q :.Q W W E K                                 ",
"                                      R E ` X.X.R T J : : : 4           H U U Y Y Q Q R R Y J H                                 ",
"                                        J J J J x - - - , : &             H J U U U J H f f - +                                 ",
"                                            _ _ ] ] K                             H P P P H                                     ",
"                                                                                                                                ",
"                                                                                                                                ",
"                                                                                                                                ",
"                                                                                                                                ",
"                                                                                                                                ",
"                                                                                                                                ",
"                                                                                                                                ",
"                                                                                                                                ",
"                                                                                                                                ",
"                                                                                                                                ",
"                                                                                                                                ",
"                                                                                                                                "
};
