/* XPM */
static char *_dcf4a1c73444832fe57da75fc5ad780UriXei6izP88x7oq[] = {
/* columns rows colors chars-per-pixel */
"64 64 214 2 ",
"   c None",
".  c #632215",
"X  c #762B19",
"o  c #85331C",
"O  c #8B341D",
"+  c #A23D1E",
"@  c #9B3E22",
"#  c #943C26",
"$  c #8D3A28",
"%  c #A13F20",
"&  c #B74715",
"*  c #BE4B14",
"=  c #BF5018",
"-  c #9D4124",
";  c #9D472A",
":  c #A54324",
">  c #A7492C",
",  c #AD4B2B",
"<  c #A94628",
"1  c #B34D2A",
"2  c #B24826",
"3  c #BD5223",
"4  c #B4532D",
"5  c #BC542C",
"6  c #BD582F",
"7  c #A44D34",
"8  c #AC4B32",
"9  c #B44F32",
"0  c #AC533C",
"q  c #AD5536",
"w  c #B15334",
"e  c #BC5631",
"r  c #BC5A35",
"t  c #B55A3E",
"y  c #BC5D3C",
"u  c #BB563B",
"i  c #BF633E",
"p  c #C04E18",
"a  c #C45214",
"s  c #CB5615",
"d  c #C3551D",
"f  c #CB591A",
"g  c #D35C1B",
"h  c #D65C1A",
"j  c #DC641E",
"k  c #C25521",
"l  c #C55923",
"z  c #CD5C23",
"x  c #C35A2A",
"c  c #C85D2C",
"v  c #C05329",
"b  c #D55E23",
"n  c #C25E32",
"m  c #C35E39",
"M  c #CA5F36",
"N  c #CC622E",
"B  c #D36125",
"V  c #DA6424",
"C  c #DB6A26",
"Z  c #D66C2F",
"A  c #DC6B2A",
"S  c #D6662B",
"D  c #DF702D",
"F  c #CB6434",
"G  c #C3623C",
"H  c #C8653B",
"J  c #C7683C",
"K  c #CE693C",
"L  c #C86534",
"P  c #D46B34",
"I  c #DC6C34",
"U  c #DA6B3C",
"Y  c #D76736",
"T  c #D77337",
"R  c #DC7334",
"E  c #DC733B",
"W  c #D5713C",
"Q  c #BA5C44",
"!  c #B45E4A",
"~  c #B15842",
"^  c #AD5844",
"/  c #BC6242",
"(  c #BA654B",
")  c #BA6448",
"_  c #C25E43",
"`  c #C46B44",
"'  c #CB6C44",
"]  c #C56E4E",
"[  c #C96E4C",
"{  c #C66549",
"}  c #D56E43",
"|  c #DB6D42",
" . c #DA6E49",
".. c #CD724C",
"X. c #CE7A4D",
"o. c #CC7448",
"O. c #D57444",
"+. c #DA7543",
"@. c #D47847",
"#. c #DF7942",
"$. c #D5764B",
"%. c #DA734B",
"&. c #D37B4E",
"*. c #DA7B4C",
"=. c #C57152",
"-. c #CB7355",
";. c #C5775D",
":. c #DA7453",
">. c #D17A53",
",. c #DA7D55",
"<. c #DA7C5B",
"1. c #C96A52",
"2. c #E06C40",
"3. c #E4784F",
"4. c #E37B54",
"5. c #CB7A63",
"6. c #D97D62",
"7. c #CF845C",
"8. c #DC8154",
"9. c #D4815B",
"0. c #DA835C",
"q. c #D6895E",
"w. c #D78556",
"e. c #E2805E",
"r. c #CE8366",
"t. c #CF856E",
"y. c #CE8E6C",
"u. c #C98669",
"i. c #D48666",
"p. c #DB8363",
"a. c #D28862",
"s. c #DB8A65",
"d. c #DB866A",
"f. c #D48C6B",
"g. c #DB8A6C",
"h. c #D38668",
"j. c #D7936E",
"k. c #DA926D",
"l. c #C58C76",
"z. c #CC8B78",
"x. c #DB8C73",
"c. c #D88E75",
"v. c #C7927C",
"b. c #CD977B",
"n. c #D69373",
"m. c #DC9374",
"M. c #D4937A",
"N. c #DA937C",
"B. c #D49C7C",
"V. c #DA9A7C",
"C. c #D19877",
"Z. c #CA966E",
"A. c #E38465",
"S. c #E28A6F",
"D. c #E18967",
"F. c #E18E73",
"G. c #E4927A",
"H. c #E49177",
"J. c #CB9987",
"K. c #DC9683",
"L. c #D49A86",
"P. c #DB9C84",
"I. c #DB9D8B",
"U. c #D69987",
"Y. c #CA9B90",
"T. c #DC9F90",
"R. c #E29784",
"E. c #CCA28D",
"W. c #CEAB8C",
"Q. c #DBA286",
"!. c #DBA38B",
"~. c #D4A58A",
"^. c #CCA595",
"/. c #CDAB95",
"(. c #CDAB9C",
"). c #CDA79B",
"_. c #D3A694",
"`. c #DCA594",
"'. c #D4AB93",
"]. c #DCAA94",
"[. c #DCA698",
"{. c #D4AD9C",
"}. c #DBAB9A",
"|. c #D7A69A",
" X c #CFB296",
".X c #CFB39D",
"XX c #D1B096",
"oX c #D3B39D",
"OX c #DDB29F",
"+X c #CCAEA3",
"@X c #DCAFA1",
"#X c #D1AFA0",
"$X c #CEB3A4",
"%X c #CFBBA4",
"&X c #CCB4AB",
"*X c #CEB8AE",
"=X c #D3B5A3",
"-X c #DCB3A4",
";X c #D3B9A5",
":X c #D2B6A9",
">X c #DBB6A8",
",X c #D3BCAB",
"<X c #DABAAD",
"1X c #CEB9B2",
"2X c #D4BDB1",
"3X c #DABEB1",
"4X c #D1C0AD",
"5X c #D6C1B5",
"6X c #DAC1B6",
"7X c #D6C4BA",
"8X c #D9C4BB",
"9X c #D9C9BE",
"0X c #DBC9C2",
"qX c #DCC7C0",
/* pixels */
"                                                                                                                                ",
"                                                                                                                                ",
"                                                                                                                                ",
"                                                                                                                                ",
"                                                                                                                                ",
"                                                                                                                                ",
"                                                                                                                                ",
"                                                                                                                                ",
"                                                                                                                                ",
"                                                                                                                                ",
"                                                                                                                                ",
"                                                                                                                                ",
"                                                                  [.P.m.n.n.V.!.[.                                              ",
"                                                              [.N.g.d.s.d.d.g.g.N.G.I.                                          ",
"                                                            <X}.K.H.F.D.A.0.p.0.s.d.x.I.                                        ",
"                                                          3X[.!.R.R.H.F.S.p.p.p.p.p.0.s.V.I.                                    ",
"                                                        L.V.d.S.G.H.H.R.R.K.c.d.A.0.,.*.,.c.~.                                  ",
"                                                      N.d.s.d.A.A.A.A.S.G.T.K.d.6.,.0.*.} $.f.M.                                ",
"                                                    `.x.d.g.p.6.4.4.4.3.6.F.U.K.c.d.<.*.#.| O.<.M.                              ",
"                                                  `.I.R.N.x.6.:.:.:.2.2.2.U <.N.I.N.<.+.#.E D E a.~.                            ",
"                                                x.d.g.I.@XI.x.<.:. . .| U Y | 6.U.T.d.%.I A V A @.n.                            ",
"                                            N.g.s.0.p.x.I.[.R.x.6. . .2.| U  .:.6.x.p.%.C j j V P 7.B.                          ",
"                                          K.g.p.0.0.x.d.x.I.[.I.x.6.<. .U U %.:.:.| %.O.A j j V Z X.Z.                          ",
"                                        -X[.P.g.s.S.N.g.x.6.N.I.I.N.f.:.U Y } U Y V Y } P B f B Z o.r.                          ",
"                                        -X-X-X!.F.D.s.s.g.p.s.S.K.K.N.<.Y Y | U j h B K K F N f z o.a.                          ",
"                                      V.V.V.`.[.Q.H.0.8.8.8.0.0.d.d.p.6.,.%.*.P h h g F J J N l z ' 9.                          ",
"                                    V.n.k.P.'.[.].].H.q.8.*.*.#.$.%.$.c.x.p.+.A h s s N G N 3 d N ' r.                          ",
"                                  V.m.P.OX3X<X@XOXOXQ.k.g.0.#.R +.#.+.0.p.9.+.S f f a l i G 6 l H [ r.                          ",
"                                  m.V.>X6X3X<X=XOX].{.}.'.!.s.E E R E E E ,.O.S f a a = / y n n G -.r.                          ",
"                                  g.!.6X8X8X<X<X>XoXoX=X=XoXP.k.s.8.E R R +.>.P B s a = / ` e e G ;.t.                          ",
"                                  s.Q.6X8X7X2X<X;X=X=X=X=X'.~._.}.'.f.R D R O.O.B f a = y / 5 e { 5.                            ",
"                                  q.C.6XqX2X2X:X,XoX{.=X:X_.'.=X{.{.~.w.A A T o.N d d k t t 4 r =.5.                            ",
"                                j.q.~.9X7X3X;X;X,X XW..X:X:X,X#X{.+X^.M.R A Z &.F d v 6 / t 9 e ;.5.                            ",
"                                j.q.~.9X7X;XOX;X;XW.W..X;X,X,X:X+X#X(.^.Z.T A +.o.x v r ( t 1 y [ -.                            ",
"                                V.s.!.9X5X;XoX;XoXW..X%X%X,X4X,X:X$X(.^.v.w.C W >.G m Q ( 1 2 Q _ 1.                            ",
"                                V.B.6X9X7X<XOX;X X X%X%X%X4X4X,X:X+X=X+XE.w.R W >.m y Q t < 2 ( _ 1.                            ",
"                                OXOX6X9X7X4X;XoXXX.X;X4X4X4X4X4X,X$X:X+XE.y.Z T >.G e ! 8 2 > ! _ {                             ",
"                                OXQ.OX9X9X5X>XoXXXoX.X4X4X4X4X4X,X,X:X+XE.y.W W >.m e ! 8 % > ! u _                             ",
"                                `.m.4X9X9X4X>X;XoX;X4X4X4X4X4X4X5X*X%X&X/.y.@.O.>.y 9 ! > % < ^ 9 Q                             ",
"                                m.w.6X0X8X>X;XoXoXoX4X4X4X4X4X4X%X/.&X&X$Xb.@.O...r 9 ~ % % ; ^ 8                               ",
"                                k.0.<X0X9X<X=X:X{.oX,X,X,X4X4X4X.XZ.b..X&X^.' +.o.4 , 0 + + > 7 #                               ",
"                                m.0.].0X9X8X,X<X=X(./.%X,X%X4X1X%X^./.&X/.u.P +.' 4 4 0 @ @ ; $                                 ",
"                                i.8.V.9X0X7X6X5X,X=X(.$X.X.X%X%X*X&X&X$XJ.&.P +.G 1 w > @ # o .                                 ",
"                                0.,.P.0X8X6X7X3X,X:X,X2X%X/.E.$X1X*X(.l.=.@.Y } r 4 , - O X                                     ",
"                                  &.s.>X6X0X8X8X8X2X2X:X$X+X&X1X1X&X&Xv.` X.F ' i 1 : o .                                       ",
"                                    ,.x.<XqX8X3X8X2X7X1X*X1X+X&X&X&X+Xv.` L c -.y 2 o                                           ",
"                                        x.[.<X@X|.:X1X1X1X1X+X^.(.Y.l.) k d c -.r -                                             ",
"                                            ~.I.K.).).+X+X+X+Xz.v.u.;.w = k J ] >                                               ",
"                                                h.i.r.J.Y.J.J.>.t.v.) & * x ] t                                                 ",
"                                                      M -.' ....-...3 & 3 i q                                                   ",
"                                                          v G G m ` e 4 4 ;                                                     ",
"                                                                ] { ,                                                           ",
"                                                                                                                                ",
"                                                                                                                                ",
"                                                                                                                                ",
"                                                                                                                                ",
"                                                                                                                                ",
"                                                                                                                                ",
"                                                                                                                                ",
"                                                                                                                                ",
"                                                                                                                                ",
"                                                                                                                                ",
"                                                                                                                                ",
"                                                                                                                                "
};
