/* XPM */
static char *_80b5bfeb4d54194f5d36ae4a8535449nPMD0Zv6YH1Wfh4g[] = {
/* columns rows colors chars-per-pixel */
"64 64 221 2 ",
"   c #000415",
".  c #010917",
"X  c #00051B",
"o  c #010B1C",
"O  c #0A0D1E",
"+  c #04111D",
"@  c #09111E",
"#  c #010D23",
"$  c #080E23",
"%  c #010E2A",
"&  c #000220",
"*  c #031224",
"=  c #091525",
"-  c #061826",
";  c #0D1A25",
":  c #03142B",
">  c #0A162C",
",  c #05192C",
"<  c #0B1A2D",
"1  c #111327",
"2  c #121C2E",
"3  c #141B2A",
"4  c #041631",
"5  c #051A33",
"6  c #0B1C33",
"7  c #071E39",
"8  c #0D1F39",
"9  c #0A1630",
"0  c #121E32",
"q  c #191D32",
"w  c #121D39",
"e  c #11202E",
"r  c #0E2234",
"t  c #0D223A",
"y  c #06203B",
"u  c #142234",
"i  c #192435",
"p  c #1C2B37",
"a  c #13243B",
"s  c #1A263A",
"d  c #15293C",
"f  c #1B2A3C",
"g  c #1F313D",
"h  c #232C3D",
"j  c #292C3D",
"k  c #22313F",
"l  c #0B2540",
"z  c #142641",
"x  c #1A2742",
"c  c #152B42",
"v  c #1B2C43",
"b  c #162B4B",
"n  c #1C2F4B",
"m  c #1C3144",
"M  c #1D324B",
"N  c #1D384D",
"B  c #1E3553",
"V  c #1A3459",
"C  c #222E43",
"Z  c #212E49",
"A  c #233345",
"S  c #2A3344",
"D  c #23344B",
"F  c #2A364C",
"G  c #25394C",
"H  c #2B3B4D",
"J  c #2A3845",
"K  c #303D4E",
"L  c #243652",
"P  c #2A3751",
"I  c #253A53",
"U  c #2B3C54",
"Y  c #253C5A",
"T  c #2B3E5A",
"R  c #313D53",
"E  c #323F59",
"W  c #2F414F",
"Q  c #32424F",
"!  c #2E4155",
"~  c #2D435B",
"^  c #29445D",
"/  c #334255",
"(  c #394455",
")  c #3A4857",
"_  c #33445B",
"`  c #39465C",
"'  c #34495D",
"]  c #3B4B5E",
"[  c #39505E",
"{  c #274464",
"}  c #2D4462",
"|  c #2E4963",
" . c #2F4B6A",
".. c #324663",
"X. c #344A64",
"o. c #3B4C64",
"O. c #334669",
"+. c #354C6B",
"@. c #3B4E6A",
"#. c #384660",
"$. c #2D506C",
"%. c #365067",
"&. c #3D5165",
"*. c #36516D",
"=. c #3C526C",
"-. c #3E596C",
";. c #354E71",
":. c #3B4F71",
">. c #355473",
",. c #3C5472",
"<. c #375975",
"1. c #3D5975",
"2. c #3D5C7B",
"3. c #39597A",
"4. c #3E617F",
"5. c #45515F",
"6. c #414D64",
"7. c #404E69",
"8. c #444A62",
"9. c #425266",
"0. c #43546C",
"q. c #49566A",
"w. c #44596D",
"e. c #4B5B6D",
"r. c #475866",
"t. c #515B6D",
"y. c #545468",
"u. c #435673",
"i. c #485671",
"p. c #445A74",
"a. c #4A5C74",
"s. c #435779",
"d. c #425E7A",
"f. c #445C7A",
"g. c #4A5D7B",
"h. c #515F74",
"j. c #525F7A",
"k. c #5A5C73",
"l. c #466074",
"z. c #4D6175",
"x. c #46617D",
"c. c #4C627C",
"v. c #4E697E",
"b. c #526375",
"n. c #526977",
"m. c #53647C",
"M. c #556A7B",
"N. c #5A6A7D",
"B. c #596678",
"V. c #626F7F",
"C. c #63717E",
"Z. c #3C5E83",
"A. c #3F6184",
"S. c #4A5F85",
"D. c #475D86",
"F. c #446383",
"G. c #4C6482",
"H. c #4D6886",
"J. c #4D6388",
"K. c #4C698A",
"L. c #45658B",
"P. c #526582",
"I. c #546A84",
"U. c #5A6B83",
"Y. c #536C8A",
"T. c #5B6D8A",
"R. c #526689",
"E. c #577284",
"W. c #5D7185",
"Q. c #55718D",
"!. c #5C728C",
"~. c #4D6E91",
"^. c #5B7392",
"/. c #567697",
"(. c #546994",
"). c #616E83",
"_. c #627286",
"`. c #62748C",
"'. c #657A8C",
"]. c #697A8D",
"[. c #6C7987",
"{. c #606F90",
"}. c #627592",
"|. c #647A94",
" X c #6A7C93",
".X c #647D9A",
"XX c #6A7E99",
"oX c #667796",
"OX c #707E94",
"+X c #6D8296",
"@X c #6D829B",
"#X c #66829A",
"$X c #748396",
"%X c #73849C",
"&X c #74889D",
"*X c #7B8C9E",
"=X c #6D86A2",
"-X c #6380A2",
";X c #7586A1",
":X c #758CA3",
">X c #7B8CA3",
",X c #748CAA",
"<X c #7887A4",
"1X c #7C90A4",
"2X c #7D92AC",
"3X c #7B95B1",
"4X c #8192A3",
"5X c #8393AE",
"6X c #8999AB",
"7X c #849CB4",
"8X c #899DB3",
"9X c #8299B8",
"0X c #8DA3BA",
"qX c #96A7BC",
"wX c #A2ABBC",
"eX c #8EA6C2",
"rX c #9BADC5",
"tX c #97A9C1",
"yX c #A5B4C7",
"uX c #ABBDD6",
"iX c #B3C8E3",
/* pixels */
" .*.,.*.*.*.*.| X.X.%.~ m.|.* c !.1.&.X.=.' T a 4 ;XT.} :.:.:.,.T z , : : . I |.^.R.K.s.{ { *.*.*. .p.=./ 9.] o   A N.#.| V <.$.",
"2.d.d.1.<.,.*.X.} %.X.=.z.`.# T @X' ' &.~ ' o.8 :  XP.} :.+.;.O.u.n 4 o o m :X0Xu.O.;.;. .,.d.1.c.=.X.I v U Q =   a b.@.X.O.d.2.",
"1.,.,.,.,.=.,.p.=.=.' 0.o.b.# p.#X~ ~ ~ ! X.&.u 6 `.I.o.,.@.+.+.7.Z a = o Q 4X0.O...@.7.+...~ I ^ N m d s C u   o f OXb.~ { ,.2.",
"*.| | X.+.X.=.p.X.X._ o.! o.: m.w.%.~ M ..' U c : g.i.O.+.+.X.@.7.S 0 = . J 4X/ E #.u.i...D c a c c v D R F 2 o = ; U.a.o.p.,.>.",
">.+.+.X.X.~ ! T @.o.0._ / U : 0.' *.X.m P G G d # o.p.o.=.X.X.X./ A + . + p [.5.C P E E E R H Q _ _ ! _ ] K u = o > `.U.o.=.| X.",
"T ..@.0.w.p.0.@.G n G a d u : 0.=.~ X.I c c G 6 * H &.&.=.=.^ ~ a p + + e @ ) ) R R Z Z R ( ( 8.] X._ ( ( A ; *   u )._.0.&.X.=.",
"! ..T n c x a , a 6 a i i 6 = b.=.I X.' I c f - * < d c m N c t < < - + e @ k W E E Z a Z Z f A A A D A f i = o = # f U o.0.' T ",
"7 c c c U g.}. X`.).).].q.S o 0.X.! I X.c.G : , , * * * , t 5 : , r d - ; + + . 0 x w 0 w > # 6 > = = #   . # # # - 6 > X X * r ",
"!.I.!.`.U.a.o.i.0.` h.7.C > q a._ Y I ~ X.p.e.6 o m ! z.M.v.@X0XW.c.g.v.M.z.n.I.f._ @.X.O.i.m.A = > = B.N._.].U.0.e.z.U.b.: ! 8X",
"p.,.i.@.@.i.@.o.7.o.6.C i s f 6.! ^ I G I z.].a.  W '.:X1X:X:X:X|.Y.P.v.M.l.l.v.7XG.O.Y ! f.!.n.C 2 i [.[.U.N.m.m.9.' _.6X/ C 4X",
"g.P.I.i.0.m.a.i.7.o.( s C F C 6.X.=.I c d ~ n.b.o G &X XE.Y.P.,.,.,.,.*.%.%.| ^ ,X;.V ;.,. .| l.b.u i b.b.9.=.9.p.P.z.U.>XU = OX",
"p.I.}.c.i.g.i.0.7.o.#.E ` Z i 0.X.X.N M I ! a.W.< a |.a.=.g.G.p.d.G.F.l.1.-.*. .J. .V ,.<.$.^ v.$Xh 0 ] a.i.u.=.!.W.T.m.&X9.# b.",
"I.P.T.P.g.P.g.m.0.#.o.9.0.D > #.' ' N ! 0.o.a.`.! z `.c.s.g.G.D.s.D.u.+.} } X.| O.2.;.>. .>.-.v.5.o o H o.@.X.I H.,.P._.].'   q.",
"}.S.s.@.u.p.u.g.s.7.0.7.q._ 8 D *.%.I X.w.@.e.m.! c I.g.@.O.} } O.} Y n v I ~ X.V O.O.3.>.| | -.A = < _ 0.0.X.{ Y | !.Y._ a o e.",
".XT.Y.f.s.g.:.u.i.0.u.#.6.o.a 8 I ' ' X.=.=.7.@.7 a P.s.O.,.,.:.,.@.o.X.=.p.c.c.s.| } +.<.%.*.l.d q * ] p.,.| {  .1.x.X.T ! 6 H ",
",.f.!.c.u.X.I I o...0.o.#.U 9 , 5 B ~ ~ I D z # # T XX{.u.R.S.,.O.O.O.X.&.&.%.' ,.=.,.^ f.!.E.! s s X e.|.W.d.,.*.+.^ | w.o.o u ",
"# & * a r , : o & a a : 6 * + &.Q.$.>.Y ^ ^ ~ =.a : L z n z b 7 l N ! ! ! _ ' _ / X._ ' I G c v i > # / W ' ' -.| <.=.I.0.! * o ",
"_ A f s - . r d D c b o.e.s p *X@XH.Q.!..X^.!.`.T % a m.{.P.P.T.u.*.| | ! m u < *   * < 6 6 6 * . # ; k - u d r X.z.f.m.0._ - A ",
"yX>X].e.[ G '.qX,XXX{.}.W.A < M.2.*.<.2.,.=...0.U 6 T.;X+.u.s.T ^ X.~ I ~ &./ d u . J e.n.a.U.] w 2 s ' p r d r f.z.u.g.w.' p 4X",
"%X)._.e.r.m W.1Xo.7.7.o.0.D u ] X.,.*.x.,.z.=.f.n 4 U.......b I B ^ ! G ~ z.e.H s 8 N.4Xa.o.U.a.8.h = r.W J d d 0.p.,.o.w.] g wX",
"m.i.m.0.z.g c.z.g.u.u.i.a.D - G d.p.^ } +.f.X._ z % i.~ T :.1.Y } Y Y ~ _ U U ' A - ! ].A H [ / 9.J o t.Q Q p r U u.i._ 0./ > C.",
"j.i.q.9.z.G I.z.g.u.:.u.a.D + u _ d.=.z.z._ c a #.`.=...O.O.:.b B L Y T T U E ` / : s [.9.n.z.&.r.R + C.r.Q p H 0.0.0.0.h.G + t.",
"Z L U 0.U.I z.=.:.s.u.:.i.! > : _ p.0.=.X.a o.<X0Xm.M @.+. .Y.Y b T O.I I .._ G m < A ].[ [ ' [ 8.F * B.b.p e [ B.7.6.i.0.d - r.",
"9 9 8 ' w.c p.u.f.u.,.u.i.T # # c ! 0.P.a.r ' 5Xi.n =.T O.,.K.Y V Y T T _ _ U A ! + * w.l.r.] ' 9.8.p 8.t.e p Q E o.7.U m < - u ",
"% 4 % % * t v.@.,.u.O.D.u., a 6 : t M v D # P 0.U U ..X.O.s.G.+.B Y T T E E P n v : * a ' G G N A C - o * + ; = 6 9 w 9 # % * o ",
"4 z x L c a l.,.u.s.+.u.@.% _ N.c.z.p.~ U X n z.U U .._ +.R.G.Y b n Y E E .._ _ f < * * * 5 , : # X : u ;   o u D i.oX{.j.u.! r ",
"7.g.R.}.w.c =.*.+.:.+.u.u.# / *X@X;X@XXX`.a a 0.A U _ @.o.T B n T T Y P L F T R C # a 0.z.!.w.=.X.7.9.h.].( < N.5X4XXX<XXX'.W.M.",
"a.m.T.$Xl.a %.l.,.;.O.u.z.* G '.X.X.o.=.a.8 > ] _ E _ T I n T u.s.O.#.O.#._ _ o.T , a.8X:X|.d.c.I.{.b.a.+XQ o  X>Xm.i.s.s.=.p.c.",
"a.i.z.I.' , %.l.G.,.+.=.g.< G +XX.X.~ ~ w.c : T U o.` D D T T F x z c U ` _ _ _ E % =.|.|.!.R.G.S.@.P.b.] u e  XP.j.P.g.u.f.c.l.",
"P.m.W.'.' , ^ N =.s.,.u.X.5 A W.| X.*.=.w.c   # s F ( U D Z c 8 D v c Z U _ o.6.U.8 U c.}.T.Y.f.:.X.u.p.&.d r _.).P.g.s.,.d.F.c.",
"0.i.!.W.! r -.! ^ u.p.,.n , d w.| { X.*.X.M # a n 0 x / U G E o.L D A c n C D Z Z : P T.Y.,.F.Y.u.R.u.c. XG 9 m.}.g.s.R.R.G.p.<.",
"m.j.U.e.r r E.&.~ g.u.X.6 u A r.w.| =.=._ z X 6 A 0 Z 6.6.6.E 8 a D ` ] / D s 2 . 8 U Y.p.c.G.:.g.Y.m.XX Xv < i.j.P.{.Y.f.x.f.*.",
"a * d - < J / ] T P E P a 6 i / ` U 0._ i > $ # $ = A H H m r u i Z H K R J i + ; - a ' 9.! U _ 0.o./ R K S h h ( ` T n c t 7 7 ",
"G ! G d + g - m P _ 7.P a A S A f ; w o 9 # > 0 C A U A f m d W f # ; = ; 3 + - < e u > 6 a 8 5 > < i i w ; 3 u = 2 i F 6.9.! T ",
"!.Y.W.z.r ! 6XM.#.T E T e.%X'.o.0.a.T.0.6 % h.%Xi.a.a.' ~ %.-.l.N.P R x # = o s H &.p.9.=.z.I.m.m G _ ] ] / ' ] U * o.tX|.G.!.^.",
"f.=.[ #X-., 0XuXT.u.s.g.u.z.w._ 0.! i. X, c j...p.=.=.=.1.1.*.-.T.0.a.o.6 , v X.&.u.z.P.P.c.R.Y.f.f.f.l.z.z.a.e.a.f =.0Xg.I.E.| ",
"H.f.1.7X^ # -..X,.^ :.u.+.X.o.p.u.=.I.XX# 7 P.R.u.=.>.f.F.2.<.2.u.u.i.g.t l =.p.|.I.c.I.Y.H.G.Y.^.^.Y.I.Y.Y.I.m.!.=.! Y.p.d.,.H.",
"Y.+.!.d.: N l.X.O.O.:.O.@.,.X.=.=.p.m.o.z # n Y g.G.f.H.x.<.x.Q.D.G.u.P.t M I.p.x.P.Y.R.P.K.T.^.H.K.H.F.x.c.H.P.|.I y } N 7 c H.",
"=XY.I.y c N I @.n @.D.+.@.X.! w.G.z.&.6 a # 7 Y u.x.,.,.>.<.F.x.p.u.s.P.4 B T.Y.u.P.R.s.,.f.g.s.F.F.F.F.F.I.F.f.X.5 : L X.^.2X=X",
"b ^ n c : P =.I :.s.u.=.P.u.A G d d t : : 5 , P P.!.G.c.Y.#X-Xx.G.p.T.T.# z j.}.%XP.X.#.u.R.S.u.p.,.*.,.f.x.=.I 4 # o 7 D ! T T ",
"% & 9 8 & 6 ! 9.i.T.T.P.j.E ; * . : r 6 6 , # # a U @.p.T.p.{ X.o.a.g.Z 9 % 9 n @.o.Z o.a.j.P D c l 7 4 5 5 7 5 7 c a a m r * X ",
"{.(.).m._ r x G P 8 P x 0 $ e r.W._.N.M.h.9.#._ C 6 # % # : r d 6 , %   a Z a 8 > 9 & % w i # : & : t n ^ =.!.;X8X0XrX`.w.a.h.b.",
"P.P.i.j._.i * # 9 # 9 & $ X ` yX*X&X].'.]._.U.).OXq.D x , 0.b.0.` R R w x x C R 6.> 2 q . > r.( m.U.W.I.c.I.|.:X@XXXrXw.a ] 0.h.",
"g.i.o.i.1XH * f w j.P 8.U.s u t.[ ' ~ %.0.7.0.N. X_ F S x $Xa.o.0.H H F S 0.m.U.j.0 > s o i wX*XN.c.p.9.=.=.=.=.p.,.2XU.G b.m.a.",
"R.S.P.g.>X_ 6 U.tXuX7.P.+X` u [ *.=.=.<.u.=.i.T.a.a D _ _ OXD 9.q.D A _ 8 0.i.o.#.6.u # 2 s 6X[.=.&.X.=.d.c.H.G.d.<..X3Xp.Y.I.c.",
"J.:.P.u.|.' 5 T.5X}.s.{.b.' r -.%.<.<.<.,.+.f.!.L n ..E n `._ z._ H ~ ! : ~ i.g.7.}.o.> : p $X/ 0.w.p.f.x.x.F.F.F.F.K.3XY.x.Y.E.",
"(.D.J.F.!.| t P.Y.u.^.}.g.T c -.$.3.3.<.>.Z.^.,Xb I T T , o.@.o.=.%.B y M =.=.@.o.@.g.8   d _.' X.=.1.1.2.2.F.L.Z.A.F././.Z.K./.",
"S.S.s.u.>.M n }.R.R.P.+.G.P N ! >.A.2.>.>.G.#X9X~ b a i.6 % H a G ~ N * s.G.,.,.,.X.U.v # u Q 9.a.p.p.d.x.F.F.D.L.L.~.F.-XF.Y.Y.",
"g.}.g.o.v Z n P.i.U.A T m.P 8 _ X.c.H.c.P.P.`.,Xo.Z D o.h & i h r , r d.!.d.s.,.=.@.0.U o p p i A P.P.} I.S.u.J.3.S.D.S.S.P.P.g.",
"{.g.U.q.T : U I.6.0.U e._.E x U o.c.N.p.z.m.P.z.c H R h $ = j C r ~ |.c.=.G.=.s.+.@.b.=.o e h K < D XX`.P.Y.}.{.oX{.P.P.m.P.I.{.",
"x a D T z , U U.U.a.a.`._.P 6 * : : : # # , 5 * 6 x w = o q K 8.b.!.=.=.f.f.R.+.O...0.9.o * o ; m . A P D p.H.=.Y.R.Y.T.I.=.P Z ",
"# 6 # %   # a =.T x n n M t 4 % 4 * c 1.f.=.=.X.p.m.U.q.i i y.).m.0.=.p.Y.Y.+.;.,.X.=.0.* * e k A , r , # X . * # 4 9 4 6 , & # ",
"8 X 0 ` 0.v X.o.: D Y.z.!.@XXX.X-.! <.@X;X!.!.^.m.T.%Xb.6 0 r.` ~ 1.!.x.f.D.+.+.u.:.u.@.% < a.4XM.n.[ [ W , d W ^ P N m m r , N ",
"b.9 _ uXeXW.+X X~ }.iXeX3X=X!.F.^.l.p.l.1.*.,.x.I.=.m.I.U U b._ X.c.G.Y.1.O.G.+.+.O.@.L : 6 _.>Xr.b.n.M.r r +X8X8X&X&X&X+X=.m w.",
" X/ 6 ;X7._ ..g.I B :X^.d.d.G.F.%.1.1.=.<.d.,.<.d.=.z.z.D < E e.X.B !..Xs.+.O.s.:...u.L z a m.w.l.[ l.M.g W #XW.z.0.w.-.n.[ c -.",
"U o.> G _ o.=.I.} # F.Y.,.,.d.+.*.d.,.%.<.2.,.1.*.x.=.L 8 < F 0.g.B L f.@.O.D.u.O.X.D.n x 4 z._ %.' z.l.5 N -.l.p.c.v.%.l.4.c W ",
"w.G d a.] =.0.p.D 5 =.G.*.c.K.d.-.*. .<.d.=.1.,.,.} U U A : C o.z...Y @.s.u.@.:.@.O.s.@.b w @...' *.=.c.c D U.i.M.z.i.u.f.p.! b ",
"b.H A _.a.0.=.p.B 4 =.F.-.F.G.=.=.p.l.x.G.1.,.X.=.@.X.E n = x R z.=.#.u.p.u.u.g.E E 7.E z 9 9.=.-.%.' 0.l Z u.E _ i.j.P.s.=.*.*.",
"9.v s N.m.9.&.z.X.t =.d.=.1.x.X.f.f.x.p.1.x.G.H.G.I.I.i.E = h S g.i.0.0.0.7.7.i.0.7.7._ Z 4 0._ +.*.@.u.8 : Z x o.u.i.u.=.,.d.f.",
"9.A a a.z.w.=.z._ 6 =.&.=.=.G.p.p.i.I.I.P.I.c.I.P.U.I.q.R > q C e.a.0.0.7.7.7.q.P ` 7.` U 9 i.p.=.p.g.p.z # x F o.8.@.u.g.G.s.+.",
"A u * H ] 9.0.w.! 6 ' ! ' ! ~ ! 7.o.0.=.@.o.` O.o.E U S h X q S f f s i i i i a q R q.` m * [ r.~ I I G u : s F 8.E P F P T L n ",
": : o < a c s < - . , * f r , s 8 w 9 % 9 : 9 : 8 > $ # O   1 q 3 - - = = $ o $ = h S i ; * s r , , a u 0   o = 9 $   X 4 8 5 % ",
"f G G ' e.n.N.M.N.e.9./ 9.J . * E t.E o.o.E E % & % > $ q 1 q @ = + o . .     .   . o . > H J u d m ] / ( i o     1 F r.b.m.=.T ",
"9.z.0.9.9.] 9.9.9.e.e.B.$Xb.- 6 OXtXOXU.j.u.t.% 9 R 8.8.k.y.y.j i < ; = O   . 1 i j J h k B.t.n.n.z.b.r.C.5.h @   S t.b.] G G _ "
};
